<?xml version="1.0" standalone="no"?>
<!DOCTYPE svg PUBLIC "-//W3C//DTD SVG 20010904//EN"
 "http://www.w3.org/TR/2001/REC-SVG-20010904/DTD/svg10.dtd">
<svg version="1.0" xmlns="http://www.w3.org/2000/svg"
 width="540.000000pt" height="551.000000pt" viewBox="0 0 540.000000 551.000000"
 preserveAspectRatio="xMidYMid meet">

<g transform="translate(0.000000,551.000000) scale(0.100000,-0.100000)"
fill="#000000" stroke="none">
<path d="M2655 4859 c-4 -11 -4 -23 -1 -26 3 -4 6 0 6 7 0 9 5 7 15 -6 18 -24
19 -35 1 -28 -16 6 -16 -19 -1 -33 4 -4 5 -2 1 5 -5 8 0 11 16 9 19 -3 23 -10
21 -33 -2 -22 -1 -25 5 -10 8 17 9 16 25 -7 9 -15 17 -31 17 -37 0 -5 4 -10
10 -10 5 0 7 -8 3 -17 -3 -10 -3 -15 2 -11 14 13 110 -123 97 -138 -4 -4 -2
-5 3 -2 6 3 18 -5 28 -18 14 -19 15 -23 2 -18 -10 4 -15 0 -15 -10 0 -9 -5
-16 -11 -16 -5 0 -8 -4 -5 -9 4 -5 -11 -20 -31 -32 -21 -13 -40 -25 -43 -28
-8 -10 -164 -12 -177 -4 -14 10 -32 113 -38 216 -3 38 -6 72 -9 74 -6 7 -18
-149 -20 -279 -2 -117 -2 -118 -33 -150 -17 -18 -40 -50 -51 -70 -25 -44 -19
-48 62 -42 34 2 55 0 51 -6 -7 -12 55 -24 123 -24 28 0 52 -4 52 -9 0 -5 13
-7 29 -5 17 2 28 1 26 -2 -2 -4 31 -7 73 -7 67 -1 72 0 42 9 -49 13 -77 43
-85 88 -7 44 3 112 16 104 5 -3 9 2 9 10 0 9 5 16 10 16 6 0 10 6 10 13 0 8
10 23 23 35 46 43 151 16 201 -51 16 -22 21 -43 21 -102 0 -41 4 -75 8 -75 5
0 5 -4 2 -10 -4 -6 5 -10 19 -10 14 0 26 6 26 13 0 9 2 9 8 0 4 -6 34 -14 67
-16 l60 -3 -72 -2 c-40 -1 -73 -6 -73 -10 0 -11 39 -46 67 -61 28 -14 76 3 97
34 20 31 20 35 -1 35 -14 0 -15 2 -4 9 7 5 22 6 32 4 11 -3 26 0 34 7 8 6 19
9 25 5 6 -4 2 12 -10 34 -16 31 -19 51 -14 79 9 52 51 132 69 132 8 0 15 4 15
8 0 5 6 9 13 9 6 0 35 3 62 7 80 9 130 -30 145 -114 13 -71 -23 -128 -101
-159 -21 -8 -18 -10 21 -12 25 -1 36 -3 25 -6 -11 -3 -24 -9 -30 -14 -5 -5
-14 -9 -20 -9 -5 0 -3 5 5 10 18 12 2 12 -25 0 -18 -8 -18 -9 -2 -9 11 -1 15
-6 11 -12 -4 -7 -3 -10 2 -8 5 2 26 11 47 19 20 8 37 18 37 23 0 4 5 5 10 2 6
-4 34 0 63 9 83 24 308 68 350 67 20 0 37 5 37 10 0 5 -36 45 -80 88 -78 78
-80 81 -80 128 0 97 -50 427 -67 443 -3 3 -2 -13 2 -35 9 -48 22 -245 16 -251
-2 -2 -6 -16 -7 -30 -2 -14 -11 -32 -21 -40 -10 -7 -15 -14 -11 -14 13 0 -26
-40 -39 -40 -7 0 -13 -5 -13 -11 0 -6 -6 -9 -14 -6 -8 3 -16 2 -18 -3 -4 -12
-42 -16 -46 -5 -6 19 -44 54 -74 66 -16 6 -27 17 -25 23 3 7 -2 21 -10 31 -11
13 -14 15 -10 4 3 -9 -1 -16 -9 -16 -9 0 -13 6 -9 15 5 12 3 13 -10 2 -28 -23
-24 -6 6 28 16 18 29 29 29 25 1 -5 7 7 16 26 17 41 65 102 148 189 33 34 57
65 53 68 -8 8 -131 -73 -192 -127 -27 -24 -86 -79 -130 -122 l-79 -79 -54 7
c-69 9 -270 8 -317 -1 -35 -6 -39 -3 -118 73 -45 43 -109 101 -142 128 -33 27
-79 66 -102 87 -48 43 -69 47 -78 17z m1265 -419 c0 -5 -4 -10 -9 -10 -6 0
-13 5 -16 10 -3 6 1 10 9 10 9 0 16 -4 16 -10z"/>
<path d="M2617 4837 c-3 -9 1 -21 9 -28 20 -17 25 -8 10 20 -10 19 -14 20 -19
8z"/>
<path d="M2601 4764 c0 -11 3 -14 6 -6 3 7 2 16 -1 19 -3 4 -6 -2 -5 -13z"/>
<path d="M2605 4710 c3 -5 8 -10 11 -10 2 0 4 5 4 10 0 6 -5 10 -11 10 -5 0
-7 -4 -4 -10z"/>
<path d="M2667 4693 c-4 -3 -7 -13 -7 -22 1 -13 3 -13 11 2 11 19 8 33 -4 20z"/>
<path d="M2690 4689 c0 -5 5 -7 10 -4 6 3 10 8 10 11 0 2 -4 4 -10 4 -5 0 -10
-5 -10 -11z"/>
<path d="M2750 4621 c0 -6 4 -13 10 -16 6 -3 7 1 4 9 -7 18 -14 21 -14 7z"/>
<path d="M2670 4601 c0 -5 5 -13 10 -16 6 -3 10 -2 10 4 0 5 -4 13 -10 16 -5
3 -10 2 -10 -4z"/>
<path d="M3725 4570 c-3 -5 -1 -10 4 -10 6 0 11 5 11 10 0 6 -2 10 -4 10 -3 0
-8 -4 -11 -10z"/>
<path d="M2605 4530 c-3 -5 -1 -10 4 -10 6 0 11 5 11 10 0 6 -2 10 -4 10 -3 0
-8 -4 -11 -10z"/>
<path d="M2825 4480 c3 -5 8 -10 11 -10 2 0 4 5 4 10 0 6 -5 10 -11 10 -5 0
-7 -4 -4 -10z"/>
<path d="M2668 4453 c7 -3 16 -2 19 1 4 3 -2 6 -13 5 -11 0 -14 -3 -6 -6z"/>
<path d="M2662 4415 c-7 -8 -9 -15 -4 -15 5 0 15 7 22 15 16 19 -1 19 -18 0z"/>
<path d="M3492 4328 c-7 -7 -12 -29 -12 -50 0 -45 25 -62 46 -33 19 26 18 81
-2 89 -20 8 -18 8 -32 -6z"/>
<path d="M3031 4296 c-13 -16 -5 -60 14 -76 19 -16 45 -1 45 27 0 52 -34 80
-59 49z"/>
<path d="M4155 4180 c3 -5 -3 -10 -14 -10 -12 0 -21 -5 -21 -10 0 -6 -7 -10
-16 -8 -23 4 -29 -19 -7 -25 17 -4 17 -5 0 -6 -10 0 -20 6 -23 14 -10 25 -32
18 -27 -9 5 -23 8 -23 101 -23 54 0 90 2 82 5 -20 6 -53 42 -46 49 7 7 -13 33
-26 33 -5 0 -6 -4 -3 -10z m8 -27 c-7 -2 -19 -2 -25 0 -7 3 -2 5 12 5 14 0 19
-2 13 -5z m15 -38 c-3 -3 -9 2 -12 12 -6 14 -5 15 5 6 7 -7 10 -15 7 -18z"/>
<path d="M4216 4135 c4 -8 11 -15 16 -15 6 0 5 6 -2 15 -7 8 -14 15 -16 15 -2
0 -1 -7 2 -15z"/>
<path d="M2402 4136 c4 -5 -3 -16 -15 -26 -30 -24 -119 -70 -134 -70 -7 0 -16
-6 -20 -13 -4 -6 -21 -19 -38 -27 -30 -15 -62 -49 -58 -62 2 -4 -6 -10 -17
-13 -21 -7 -28 -25 -10 -25 6 0 10 -15 11 -32 1 -47 12 -81 28 -86 9 -3 11 0
6 7 -4 8 1 14 14 18 12 3 21 10 21 15 0 5 9 7 20 3 10 -3 50 3 88 14 38 12 81
21 96 21 15 0 25 4 21 9 -3 6 9 7 31 4 25 -4 35 -3 31 5 -5 6 0 8 13 5 15 -4
20 0 21 13 0 11 3 14 6 7 5 -14 33 -18 33 -5 0 4 19 8 42 9 23 2 44 6 47 10 3
5 22 10 41 11 19 2 37 7 40 10 3 4 10 7 15 7 34 1 114 28 108 38 -4 6 -1 7 6
3 7 -5 26 -2 42 4 16 7 32 10 36 6 3 -3 -8 -11 -25 -17 -18 -6 -29 -16 -25
-22 3 -5 1 -7 -4 -4 -6 4 -25 4 -41 1 -22 -5 -29 -11 -25 -23 4 -12 3 -13 -5
-3 -10 14 -66 6 -57 -8 3 -5 -3 -6 -12 -4 -10 2 -38 -2 -63 -10 -44 -14 -44
-14 -20 -24 14 -6 19 -11 12 -11 -7 -1 -21 4 -31 11 -14 9 -37 7 -104 -10 -48
-12 -96 -22 -107 -22 -12 0 -19 -4 -16 -8 2 -4 -12 -9 -32 -10 -20 -2 -39 -7
-40 -12 -2 -6 -8 -8 -13 -4 -13 8 -70 -6 -64 -16 3 -4 -2 -11 -11 -14 -24 -9
-31 -7 -14 4 11 8 6 10 -20 7 -19 -2 -34 -9 -33 -16 2 -6 -7 -11 -20 -12 -21
-1 -21 -1 3 -9 l25 -8 -25 -2 c-24 -2 -23 -3 5 -10 17 -4 22 -8 12 -9 -14 -1
-17 -6 -12 -21 4 -11 2 -20 -4 -20 -6 0 -11 -8 -11 -17 1 -16 2 -16 13 -2 7 8
21 16 32 16 11 1 31 4 45 6 14 3 49 9 79 13 41 5 55 12 59 26 3 12 10 17 19
14 8 -3 18 -6 21 -6 4 0 0 -5 -8 -11 -12 -9 -12 -10 3 -5 10 3 26 6 35 7 13 0
13 2 -3 8 -14 6 -4 8 31 8 36 -1 57 4 69 16 9 9 22 17 28 17 7 0 6 -4 -3 -10
-13 -8 -13 -10 2 -10 9 0 23 6 30 13 7 8 19 12 26 9 17 -5 102 20 96 29 -2 4
-14 5 -27 3 -20 -4 -20 -4 -2 5 13 5 25 5 33 -2 9 -7 34 -4 87 13 41 13 73 26
71 29 -2 3 9 6 25 7 16 1 38 9 49 19 18 16 20 16 20 2 0 -9 -11 -19 -25 -23
-14 -3 -22 -10 -19 -15 3 -5 -1 -6 -9 -3 -7 2 -27 0 -43 -6 -26 -10 -27 -13
-11 -21 9 -6 17 -15 17 -20 0 -6 -7 -3 -16 5 -18 19 -22 19 -80 5 -24 -6 -44
-16 -44 -21 0 -6 -6 -8 -13 -5 -7 3 -29 -2 -48 -10 -18 -9 -41 -17 -49 -19 -8
-2 -40 -10 -70 -18 l-55 -16 63 3 c34 2 62 0 62 -5 0 -4 -9 -8 -20 -8 -27 0
-25 -18 3 -23 l22 -4 -23 -2 c-13 0 -20 -5 -17 -11 4 -6 0 -22 -9 -35 -20 -30
-20 -45 -1 -45 16 0 75 57 75 73 0 5 12 7 26 4 14 -2 31 2 40 10 8 8 14 10 14
4 0 -6 9 -11 20 -11 11 0 19 5 18 12 -2 7 2 12 7 13 6 0 16 4 23 8 7 5 12 4
12 -2 0 -6 7 -11 15 -11 9 0 18 -13 22 -31 7 -39 23 -45 62 -24 20 10 31 12
31 4 0 -6 7 -9 15 -6 8 4 17 2 20 -3 6 -9 -15 -14 -42 -11 -7 1 -13 -3 -13 -9
0 -5 6 -10 13 -11 84 -7 87 -6 82 15 -5 15 -4 17 3 7 8 -11 16 -11 48 0 43 15
56 28 49 47 -7 20 12 14 40 -14 14 -14 26 -36 27 -49 1 -13 5 -22 9 -19 4 2
11 0 14 -6 4 -6 16 -8 27 -4 15 4 19 2 16 -7 -3 -8 -12 -13 -22 -11 -11 2 -16
-4 -16 -21 0 -12 -6 -29 -12 -36 -11 -11 -8 -12 14 -7 15 3 28 1 30 -5 2 -6
19 -14 38 -19 30 -7 32 -8 9 -9 -15 -1 -29 -7 -32 -14 -4 -10 4 -11 39 -3 41
10 62 36 29 36 -8 0 -15 5 -15 10 0 6 -11 10 -25 10 -14 0 -25 5 -25 10 0 6
11 8 25 4 19 -5 25 -2 25 10 0 9 -4 16 -10 16 -5 0 -10 7 -10 15 0 11 7 14 25
9 14 -3 25 -2 25 3 0 19 114 2 138 -20 16 -15 25 -18 33 -10 8 8 5 17 -11 33
l-23 23 23 17 c16 12 21 23 15 38 -4 16 -2 22 9 22 8 0 22 3 32 7 14 5 16 2
10 -21 -4 -17 -2 -34 5 -42 15 -18 -8 -51 -25 -34 -5 5 -12 10 -16 10 -8 0 -6
-94 3 -107 10 -16 2 -16 -24 -3 -15 8 -19 7 -19 -5 0 -19 -16 -20 -24 0 -8 22
-21 18 -35 -11 -13 -30 -6 -47 10 -24 8 11 12 12 16 3 2 -7 13 -13 24 -13 14
0 19 -7 19 -27 1 -25 2 -26 11 -10 11 18 12 18 30 -2 10 -11 19 -25 19 -31 0
-17 -28 -11 -32 8 -3 15 -6 14 -16 -5 -11 -20 -10 -22 4 -16 13 5 15 2 9 -15
-5 -16 -2 -22 10 -22 20 0 30 -26 16 -44 -6 -7 -8 -16 -4 -19 3 -4 -2 -7 -12
-7 -17 0 -17 1 1 21 19 21 19 21 -1 18 -11 -3 -21 -10 -21 -17 -1 -6 -3 -14
-4 -17 -1 -3 -3 -10 -4 -17 -2 -17 -84 -44 -133 -43 -23 1 -40 -2 -37 -7 3 -5
10 -5 16 -2 6 4 8 -2 3 -17 -4 -16 -3 -20 3 -11 7 11 10 11 15 -2 9 -24 27
-20 85 19 51 35 62 33 41 -7 -10 -19 -9 -19 20 3 26 19 28 24 15 34 -14 10
-14 12 0 24 9 8 16 9 16 3 0 -6 -6 -13 -12 -16 -7 -3 -4 -4 7 -3 11 2 19 8 18
14 -1 6 6 9 17 6 15 -4 18 -1 13 16 -4 16 -1 21 13 21 10 0 28 10 41 21 20 20
83 35 83 20 -1 -12 -27 -41 -38 -41 -6 0 -9 -7 -5 -16 4 -12 2 -15 -8 -12 -8
3 -13 12 -13 21 1 9 -2 14 -7 11 -5 -3 -9 -14 -9 -25 0 -16 -4 -19 -21 -14
-28 9 -15 -13 15 -25 16 -7 12 -8 -19 -7 -22 1 -43 6 -46 11 -10 13 -19 -9 -9
-24 7 -11 11 -12 25 0 12 10 19 10 27 2 9 -9 6 -18 -12 -37 -25 -27 -40 -25
-40 6 0 23 -25 26 -34 3 -9 -22 -8 -24 9 -24 25 0 17 -25 -15 -48 -18 -14 -45
-23 -72 -23 l-43 -2 40 -7 c31 -6 34 -7 13 -9 -16 0 -28 -6 -28 -13 0 -9 -3
-9 -11 -1 -8 8 -17 5 -32 -10 l-22 -22 -3 23 c-2 12 -8 22 -13 22 -6 0 -8 -4
-4 -9 3 -5 -4 -13 -16 -16 -17 -6 -19 -9 -8 -17 10 -6 -1 -8 -32 -6 -28 2 -45
-1 -43 -7 2 -5 -8 -10 -23 -11 -16 0 -58 -4 -95 -8 -60 -6 -68 -5 -68 10 0 10
5 14 16 10 8 -3 12 -2 9 4 -3 6 1 10 9 10 9 0 16 -5 16 -11 0 -5 5 -7 10 -4 6
4 8 10 5 15 -6 10 49 30 84 30 20 0 23 2 11 10 -9 6 -10 10 -3 10 6 0 20 3 30
6 15 5 15 4 3 -5 -17 -12 -2 -15 25 -5 13 6 14 9 3 16 -9 6 -5 7 11 3 16 -5
21 -4 17 4 -4 6 0 11 9 11 10 0 13 5 9 12 -4 6 -3 8 4 4 6 -3 13 -2 17 4 3 5
13 10 21 10 23 0 7 -19 -42 -50 -33 -21 -40 -29 -29 -34 9 -3 13 -2 10 4 -3 6
1 10 9 10 9 0 16 5 16 11 0 6 12 9 28 6 15 -2 21 -2 15 0 -7 3 -13 8 -13 12 0
10 43 46 77 65 15 8 24 15 18 16 -5 0 -24 -9 -42 -20 -20 -12 -35 -15 -38 -9
-8 12 -78 4 -102 -11 -15 -9 -14 -10 7 -5 18 4 21 3 10 -3 -25 -16 -88 -24
-95 -12 -3 5 -12 10 -18 10 -7 0 -6 -4 3 -11 11 -8 12 -12 3 -16 -7 -2 -13
-10 -13 -16 0 -7 -12 -17 -26 -24 -26 -12 -54 -8 -54 8 0 10 -40 12 -64 3 -9
-3 -16 -10 -16 -16 0 -5 5 -6 11 -2 6 3 15 0 20 -7 7 -11 11 -11 17 -1 5 7 16
10 26 6 14 -5 10 -10 -20 -20 -21 -7 -40 -11 -43 -9 -2 3 2 5 9 5 7 0 11 3 8
6 -4 3 -17 -1 -30 -9 -12 -9 -40 -19 -60 -22 -41 -8 -170 14 -162 26 3 5 -7
11 -21 15 -13 3 -23 10 -20 14 3 5 -9 3 -25 -3 -26 -10 -37 -8 -75 12 -25 13
-45 28 -45 32 0 10 33 -6 64 -31 18 -14 18 -14 8 5 -16 32 -44 52 -90 66 -37
11 -45 10 -54 -2 -8 -12 -9 -12 -5 1 2 8 17 18 33 21 16 3 28 10 27 17 -2 6 4
9 12 6 9 -4 15 0 15 10 0 10 9 16 24 16 26 0 44 16 26 22 -6 2 -1 9 9 15 15 9
22 10 27 1 5 -7 3 -8 -6 -3 -9 6 -11 4 -5 -5 6 -9 4 -11 -6 -5 -8 5 -7 0 3
-11 10 -11 23 -36 30 -55 6 -19 14 -36 18 -39 3 -3 14 -16 23 -30 9 -13 17
-18 17 -11 0 8 -7 23 -17 33 -15 16 -15 21 0 58 17 44 15 46 -40 41 -31 -2
-29 4 11 27 19 11 40 31 46 44 11 22 11 22 -5 3 -9 -11 -20 -20 -26 -20 -5 0
-14 -7 -19 -15 -5 -8 -12 -11 -16 -7 -4 4 -5 8 -3 10 2 2 21 15 41 30 41 30
54 33 61 15 4 -10 7 -10 15 0 7 10 11 10 22 -3 11 -13 10 -18 -6 -30 -16 -12
-17 -17 -6 -34 10 -18 10 -21 -3 -21 -19 0 -19 -14 0 -30 23 -19 30 -5 30 66
l0 65 27 -5 c30 -6 41 4 32 29 -5 11 -14 15 -29 11 -19 -5 -22 -2 -17 19 5 30
-12 33 -48 8 -14 -10 -38 -16 -53 -14 -18 2 -27 -1 -23 -7 10 -16 -122 -54
-145 -41 -23 12 -48 1 -28 -12 16 -10 1 -12 -76 -10 -40 1 -46 -1 -30 -9 18
-9 17 -10 -5 -5 -14 2 -29 5 -35 5 -5 0 -3 5 5 10 13 9 13 11 0 20 -26 17 -43
12 -37 -11 4 -16 3 -18 -9 -8 -11 9 -14 7 -14 -10 0 -15 -6 -21 -22 -21 -21 0
-21 0 -2 14 18 14 18 15 2 21 -23 9 -23 34 -1 42 22 9 77 8 91 -1 7 -4 12 -1
12 8 0 9 -12 16 -32 18 l-33 4 30 13 30 14 -37 9 c-21 6 -38 15 -39 21 0 7 -2
20 -4 29 -2 9 8 27 21 39 13 12 24 26 24 31 0 16 -20 8 -42 -17 -22 -25 -45
-35 -32 -13 4 7 3 8 -4 4 -6 -4 -9 -13 -6 -20 6 -17 -16 -33 -25 -18 -4 6 -12
4 -21 -6 -13 -14 -12 -15 3 -9 12 4 16 3 11 -4 -3 -6 -18 -8 -33 -5 -19 5 -22
4 -11 -3 12 -8 11 -11 -5 -17 -11 -4 -24 -10 -30 -12 -5 -3 -4 2 4 11 9 12 10
17 2 17 -7 0 -9 5 -5 13 4 7 3 9 -2 4 -5 -5 -10 -13 -10 -18 -1 -5 -2 -13 -3
-19 0 -5 -15 -16 -31 -22 l-31 -13 34 -11 c28 -8 34 -8 30 3 -3 7 2 13 10 13
8 0 18 -11 21 -25 7 -28 17 -31 48 -14 18 10 20 9 14 -6 -3 -10 -1 -24 5 -32
7 -7 9 -17 5 -21 -4 -4 -12 1 -17 11 -10 17 -49 24 -49 8 0 -5 -9 -11 -20 -14
-11 -3 -18 -2 -16 1 2 4 -2 13 -10 20 -11 10 -14 10 -14 -2 0 -9 -7 -12 -17
-10 -16 5 -18 -9 -23 -148 -8 -247 -6 -360 8 -400 8 -21 16 -37 20 -37 19 3
32 -2 32 -12 0 -8 -5 -8 -15 1 -8 7 -15 9 -15 6 0 -10 76 -120 96 -140 9 -10
13 -20 9 -24 -3 -4 -20 9 -37 28 -30 35 -30 35 -8 3 11 -18 25 -35 30 -38 5
-3 7 -20 3 -38 -11 -61 -85 -352 -98 -387 -8 -19 -47 -120 -88 -225 -70 -176
-127 -350 -127 -383 0 -8 7 -20 15 -26 11 -8 16 -31 18 -74 1 -37 4 -56 8 -45
6 14 8 12 8 -9 1 -25 -1 -26 -36 -22 -119 14 -189 55 -225 131 -28 59 -25 92
12 169 17 36 28 69 25 74 -3 6 1 10 9 10 9 0 16 4 16 10 0 5 -8 7 -17 4 -17
-5 -17 -5 0 6 9 6 15 15 12 21 -4 5 -1 9 5 9 6 0 9 4 6 8 -2 4 13 30 35 57 46
59 52 86 7 35 -17 -20 -25 -25 -19 -13 6 12 16 25 21 28 6 4 20 28 32 53 12
26 26 50 30 53 5 3 8 10 6 15 -1 5 6 24 16 42 10 19 19 44 22 55 29 149 33
184 27 240 -3 34 -13 73 -22 87 -10 16 -11 21 -3 16 10 -6 11 -1 6 21 -4 15
-10 35 -14 43 -5 8 -8 20 -9 25 -1 25 -35 84 -44 78 -6 -4 -8 0 -4 10 10 26
-86 163 -106 150 -6 -4 -7 -1 -2 6 4 8 -8 27 -34 52 -22 22 -37 31 -34 22 6
-15 5 -16 -9 -3 -8 8 -13 21 -11 27 3 7 0 14 -6 14 -6 1 -15 3 -21 4 -5 1 -15
3 -20 4 -6 0 -15 11 -20 24 -5 12 -9 16 -9 9 -1 -7 -6 -10 -11 -7 -6 4 -7 11
-4 17 5 7 2 8 -5 4 -7 -5 -20 -1 -29 7 -37 31 -258 82 -313 72 -10 -2 -46 -5
-79 -7 -45 -2 -60 -6 -60 -18 0 -10 -3 -11 -8 -4 -8 13 -42 15 -42 3 0 -5 -6
-6 -14 -3 -15 6 -115 -27 -206 -68 -36 -16 -75 -31 -87 -32 -30 -4 -165 -105
-156 -118 3 -6 1 -8 -5 -4 -12 7 -102 -71 -99 -87 1 -6 -3 -11 -10 -12 -16 0
-84 -81 -76 -89 3 -3 2 -6 -4 -6 -6 0 -19 -12 -29 -27 -17 -27 -17 -28 1 -13
17 14 18 14 7 -7 -7 -12 -17 -25 -24 -29 -7 -4 -8 -3 -4 4 4 7 5 12 2 12 -3 0
-10 -10 -17 -21 -8 -15 -8 -19 0 -15 15 10 13 -5 -3 -26 -7 -10 -17 -14 -21
-10 -5 4 -5 2 -1 -5 8 -14 -14 -64 -25 -57 -5 3 -6 -2 -3 -11 4 -9 -2 -28 -14
-44 -40 -55 -105 -396 -84 -450 3 -7 -1 -17 -9 -22 -10 -6 -10 -9 -2 -9 7 0
12 -13 11 -32 -1 -37 39 -196 55 -216 5 -7 7 -15 4 -18 -10 -10 38 -125 75
-184 20 -30 38 -65 42 -76 4 -12 15 -29 26 -39 11 -10 20 -24 20 -32 0 -7 5
-13 12 -13 6 0 9 -3 5 -6 -8 -8 23 -39 47 -47 11 -5 16 -13 12 -22 -3 -8 -1
-15 4 -15 5 0 25 -17 45 -37 58 -60 139 -114 294 -199 24 -13 48 -21 54 -17 6
4 7 1 2 -7 -6 -10 -3 -12 13 -8 13 4 20 2 19 -6 -1 -6 10 -10 28 -9 23 2 27 0
15 -8 -11 -8 -8 -9 15 -6 17 2 24 2 16 -1 -11 -3 -8 -8 10 -19 17 -10 18 -12
4 -8 -11 4 -42 14 -68 22 -89 27 -232 84 -249 100 -11 9 -18 11 -18 5 0 -6 15
-19 32 -28 18 -9 41 -23 51 -32 9 -8 17 -12 17 -8 0 4 7 1 15 -7 8 -9 34 -18
57 -22 24 -4 48 -11 53 -15 26 -19 253 -75 295 -72 21 1 22 0 6 -6 -13 -6 1
-8 40 -8 32 0 155 -4 272 -8 180 -8 215 -7 223 5 5 8 9 9 9 3 0 -8 23 -7 83 2
45 8 111 18 147 24 36 5 66 13 68 19 2 5 12 7 22 4 11 -3 20 -1 20 4 0 5 6 10
13 11 6 1 35 4 62 7 39 5 47 4 35 -5 -12 -10 -12 -11 5 -5 11 4 46 10 77 13
134 11 171 -26 73 -72 -31 -14 -59 -26 -64 -26 -5 0 -11 -10 -14 -21 -4 -16
-11 -20 -26 -16 -14 3 -21 0 -21 -10 0 -8 -3 -12 -8 -9 -4 2 -16 -14 -27 -36
-16 -34 -17 -41 -4 -49 26 -16 73 -9 234 36 88 25 181 45 206 45 25 0 115 7
200 15 184 19 477 25 488 10 5 -5 14 -28 21 -50 24 -77 163 -305 186 -305 6 0
15 8 18 17 6 15 8 15 17 3 7 -11 8 -9 4 10 -2 14 -9 43 -13 65 -5 22 -5 56 -1
75 5 19 10 51 13 70 12 91 11 90 85 85 162 -12 285 -29 406 -56 72 -16 137
-32 145 -36 25 -10 50 -10 50 -1 0 5 5 6 10 3 14 -8 13 21 -2 48 -6 12 -40 54
-75 93 -34 39 -63 73 -63 76 0 6 115 78 125 78 4 0 21 16 38 35 16 19 36 35
44 35 7 0 17 8 20 18 4 9 15 26 25 36 9 10 15 24 11 29 -3 6 -1 7 5 4 5 -4 24
14 41 40 17 27 35 53 40 59 5 6 20 32 34 58 15 27 27 42 30 34 4 -11 6 -11 6
0 1 7 5 11 10 7 12 -7 31 58 31 108 0 23 4 36 10 32 6 -3 10 3 10 14 0 12 -6
21 -14 21 -20 0 -28 16 -33 59 -2 27 -1 32 7 21 5 -8 10 -25 10 -37 0 -12 5
-25 10 -28 6 -4 10 6 10 22 0 34 -27 142 -39 157 -5 6 -16 34 -24 61 -9 28
-25 75 -37 105 -12 30 -26 74 -30 97 -5 23 -31 88 -59 145 -51 107 -85 225
-76 267 2 13 1 21 -2 17 -8 -8 -33 61 -33 92 0 12 -4 22 -9 22 -5 0 -11 8 -14
18 -2 9 -8 25 -12 35 -5 11 -3 17 7 17 9 0 14 12 15 36 1 32 0 33 -13 17 -22
-30 -16 0 16 76 17 40 28 76 25 81 -3 5 9 26 27 47 18 21 23 30 12 21 -30 -26
-36 -22 -33 16 2 19 0 38 -4 42 -4 4 -2 12 3 19 5 6 12 56 15 111 4 54 10 117
15 139 5 22 10 71 10 109 0 63 -1 68 -20 63 -13 -3 -20 0 -20 9 0 8 -4 14 -10
14 -5 0 -10 -6 -10 -12 0 -7 -9 2 -21 21 -11 18 -18 36 -15 39 4 3 6 0 6 -6 0
-7 6 -12 14 -12 8 0 16 -4 18 -9 2 -5 17 -13 33 -17 25 -6 28 -5 19 7 -7 8 -8
22 -3 34 l8 20 1 -20 c1 -19 2 -19 10 1 9 22 32 173 32 211 0 12 -7 30 -16 38
-9 9 -16 13 -16 9 0 -5 -5 -3 -12 4 -19 19 -28 14 -28 -18 0 -16 -4 -30 -10
-30 -5 0 -10 13 -10 28 0 21 -5 28 -20 29 -15 1 -20 -4 -20 -23 0 -13 -4 -24
-9 -24 -17 0 -8 74 11 88 21 15 24 52 5 52 -8 0 -19 -10 -24 -22 -11 -22 -11
-22 -19 -3 -11 28 -45 54 -71 55 -13 0 -23 -2 -23 -5 0 -10 52 -55 65 -55 21
0 35 -32 24 -53 -6 -10 -8 -26 -4 -36 3 -11 0 -23 -6 -27 -7 -4 -9 -3 -6 3 12
19 -15 83 -35 83 -10 0 -18 -7 -18 -15 0 -8 -3 -15 -8 -15 -4 0 -15 -12 -25
-27 l-18 -28 6 40 c4 22 11 43 17 46 6 4 8 13 5 20 -3 9 -11 0 -21 -22 -15
-36 -39 -54 -57 -44 -5 4 -2 17 7 30 14 22 14 26 1 46 -15 21 -15 21 -19 -7
-2 -15 -8 -29 -14 -31 -11 -4 -11 87 0 106 4 6 4 25 1 43 -6 32 -8 33 -58 34
-29 1 -43 -1 -32 -3 27 -7 68 -50 60 -63 -10 -16 -25 -12 -26 8 0 10 -3 12 -6
5 -8 -21 -23 -15 -23 8 0 15 -4 19 -16 15 -9 -3 -18 -6 -20 -6 -2 0 -4 -11 -4
-24 0 -17 7 -26 25 -30 14 -4 30 -4 35 -1 6 4 10 -4 10 -17 1 -22 1 -22 15 -4
14 19 15 19 15 -5 0 -14 -6 -31 -12 -37 -13 -13 -14 -17 -17 -48 0 -8 -6 -12
-12 -8 -6 3 -9 18 -6 32 7 34 -1 52 -23 52 -22 0 -34 -28 -20 -45 12 -14 3
-25 -22 -25 -14 0 -18 -8 -18 -32 l0 -33 -20 33 c-11 18 -18 37 -15 43 4 5 -1
9 -10 9 -14 0 -16 -6 -10 -27 6 -26 5 -27 -8 -9 -10 14 -23 18 -49 14 -26 -3
-34 0 -31 9 3 7 16 13 30 13 36 0 24 21 -27 48 -32 16 -38 22 -23 22 12 0 25
5 28 10 4 6 15 8 26 5 14 -5 19 -2 19 10 0 12 5 15 16 11 9 -3 19 -6 22 -6 4
0 2 -4 -5 -8 -6 -4 10 -8 36 -8 l47 -2 -4 35 c-3 25 -7 32 -15 24 -14 -14 -37
-14 -37 -1 0 6 7 10 15 10 21 0 19 9 -7 29 -19 16 -19 18 -5 24 11 4 17 1 17
-7 0 -18 23 -27 41 -15 11 7 11 9 -3 9 -10 0 -18 7 -18 15 0 8 -9 19 -19 25
-25 13 -34 13 -25 -1 13 -21 -19 -28 -45 -10 -15 10 -33 21 -41 24 -8 4 1 4
20 2 l35 -6 -29 17 c-20 11 -31 13 -39 5 -16 -16 -30 -14 -24 3 5 13 -26 27
-132 62 -9 3 -11 8 -5 14 6 6 27 6 54 1 25 -5 38 -9 30 -10 -8 -1 18 -15 59
-32 41 -16 76 -27 79 -25 2 3 13 1 23 -5 13 -6 19 -6 19 1 0 5 5 10 11 10 6 0
9 -7 5 -15 -4 -11 1 -15 17 -15 12 0 18 4 12 8 -15 11 -15 42 0 42 7 0 15 6
18 13 2 8 -14 16 -47 24 l-51 12 53 -3 c28 -2 52 1 52 5 0 4 -55 10 -122 13
-178 7 -168 5 -167 30 0 11 3 15 6 9 2 -7 17 -13 31 -13 20 0 23 3 13 9 -12 8
-8 11 15 16 43 10 51 13 32 14 -10 1 -18 6 -18 12 0 17 34 5 38 -14 3 -13 -4
-17 -25 -18 -17 -1 -21 -3 -10 -6 9 -2 15 -9 12 -14 -4 -5 1 -9 10 -9 8 0 18
7 21 15 4 8 10 15 15 15 4 0 6 -7 3 -15 -5 -11 1 -15 19 -15 25 0 48 31 28 38
-6 2 -9 7 -6 12 3 4 -5 6 -17 2 -17 -4 -20 -2 -15 12 6 15 0 16 -51 12 -31 -2
-61 -5 -67 -6 -23 -5 -37 1 -32 14 6 16 -29 10 -40 -7 -4 -6 -1 -7 7 -2 12 8
10 -6 -11 -61 -9 -26 -55 -75 -92 -98 -36 -22 -77 -10 -159 45 -32 22 -61 39
-66 39 -4 0 -36 -18 -70 -40 -34 -23 -68 -38 -74 -34 -6 4 -8 3 -5 -2 3 -6 -7
-15 -22 -21 -32 -12 -97 9 -86 27 3 6 -3 10 -15 10 -12 0 -18 5 -15 10 3 6 0
10 -7 10 -18 0 -52 65 -44 85 8 22 -41 45 -55 24 -5 -8 -9 -9 -9 -4 0 11 -99
37 -155 41 -16 2 -48 7 -69 13 -22 5 -43 8 -47 5 -12 -7 -192 27 -209 39 -8 6
-12 8 -8 3z m122 -45 c3 -4 -6 -6 -19 -3 -14 2 -25 6 -25 8 0 8 39 4 44 -5z
m-124 -11 c0 -5 -2 -10 -4 -10 -3 0 -8 5 -11 10 -3 6 -1 10 4 10 6 0 11 -4 11
-10z m147 -26 c-3 -3 -12 -4 -19 -1 -8 3 -5 6 6 6 11 1 17 -2 13 -5z m108 -4
c4 -7 -3 -8 -22 -4 -38 9 -42 14 -10 14 14 0 29 -5 32 -10z m-25 -17 c118 -8
225 -16 237 -16 13 -1 23 -6 23 -10 0 -4 -40 -6 -89 -5 -49 2 -87 6 -85 9 2 3
-29 7 -69 8 -40 1 -87 3 -104 6 -21 2 -33 0 -33 -7 0 -9 -3 -9 -12 0 -8 8 -46
12 -105 12 -58 0 -93 4 -93 11 0 13 57 12 330 -8z m-193 -19 c-3 -3 -12 -4
-19 -1 -8 3 -5 6 6 6 11 1 17 -2 13 -5z m1230 0 c-3 -3 -12 -4 -19 -1 -8 3 -5
6 6 6 11 1 17 -2 13 -5z m-239 -148 c30 -10 20 -26 -47 -76 -62 -47 -109 -52
-180 -20 -52 24 -46 24 -67 3 -17 -17 -17 -17 -12 5 4 15 2 25 -8 29 -28 11
-13 32 49 67 34 19 75 46 91 59 l29 24 61 -42 c34 -23 71 -46 84 -49z m325 67
c-7 -2 -19 -2 -25 0 -7 3 -2 5 12 5 14 0 19 -2 13 -5z m33 -35 c1 -11 -3 -15
-12 -11 -8 3 -12 9 -9 13 3 5 -5 11 -17 13 -16 4 -15 5 6 4 19 -1 30 -8 32
-19z m81 16 c-3 -3 -12 -4 -19 -1 -8 3 -5 6 6 6 11 1 17 -2 13 -5z m-277 -29
c4 3 10 -2 14 -10 3 -9 0 -15 -8 -15 -8 0 -23 -3 -33 -6 -15 -5 -15 -4 -3 5
14 10 8 15 -15 12 -5 -1 -1 6 10 14 12 10 21 12 23 5 2 -5 7 -8 12 -5z m-1431
-48 c11 -14 5 -27 -11 -27 -5 0 -6 5 -3 10 3 6 1 10 -4 10 -6 0 -11 5 -11 10
0 14 16 12 29 -3z m437 -2 c-8 -9 -22 -12 -32 -8 -16 6 -16 7 2 14 34 13 47
11 30 -6z m-106 -5 c8 -5 11 -12 8 -16 -4 -3 -14 1 -23 10 -18 17 -9 21 15 6z
m990 -20 c0 -5 -5 -10 -11 -10 -5 0 -7 5 -4 10 3 6 8 10 11 10 2 0 4 -4 4 -10z
m280 -4 c0 -3 -4 -8 -10 -11 -5 -3 -10 -1 -10 4 0 6 5 11 10 11 6 0 10 -2 10
-4z m-1460 -10 c0 -3 -4 -8 -10 -11 -5 -3 -10 -1 -10 4 0 6 5 11 10 11 6 0 10
-2 10 -4z m1148 -30 c0 -19 -3 -22 -13 -13 -9 8 -10 16 -3 25 14 17 16 16 16
-12z m269 -8 c-3 -7 -5 -2 -5 12 0 14 2 19 5 13 2 -7 2 -19 0 -25z m-937 13
c0 -6 -4 -13 -10 -16 -5 -3 -10 1 -10 9 0 9 5 16 10 16 6 0 10 -4 10 -9z m385
-1 c3 -5 1 -10 -4 -10 -6 0 -11 5 -11 10 0 6 2 10 4 10 3 0 8 -4 11 -10z m240
-12 c-3 -13 -9 -24 -15 -26 -22 -8 -8 -22 23 -22 l32 0 -25 -20 c-14 -11 -36
-19 -50 -19 l-25 1 25 8 c28 9 28 10 -19 16 -44 5 -53 14 -16 14 16 0 26 2 23
5 -4 4 40 63 49 65 1 0 0 -10 -2 -22z m-1138 6 c-3 -3 -12 -4 -19 -1 -8 3 -5
6 6 6 11 1 17 -2 13 -5z m1227 -13 c4 -5 -3 -7 -14 -4 -23 6 -26 13 -6 13 8 0
17 -4 20 -9z m-1147 -7 c-3 -3 -12 -4 -19 -1 -8 3 -5 6 6 6 11 1 17 -2 13 -5z
m1448 -4 c3 -5 -3 -10 -14 -10 -12 0 -21 5 -21 10 0 6 6 10 14 10 8 0 18 -4
21 -10z m-975 -9 c3 -1 -2 -6 -12 -11 -17 -11 -51 -3 -43 9 3 6 31 7 55 2z
m30 -1 c0 -5 -4 -10 -10 -10 -5 0 -10 5 -10 10 0 6 5 10 10 10 6 0 10 -4 10
-10z m315 0 c3 -5 -1 -10 -9 -10 -9 0 -16 5 -16 10 0 6 4 10 9 10 6 0 13 -4
16 -10z m59 4 c9 -3 13 -10 10 -15 -8 -14 -21 -11 -28 6 -6 17 -4 18 18 9z
m616 -16 c0 -13 -23 -5 -28 10 -2 7 2 10 12 6 9 -3 16 -11 16 -16z m-1502 5
c-10 -2 -28 -2 -40 0 -13 2 -5 4 17 4 22 1 32 -1 23 -4z m732 -3 c0 -5 -8 -10
-17 -10 -15 0 -16 2 -3 10 19 12 20 12 20 0z m-803 -6 c-3 -3 -12 -4 -19 -1
-8 3 -5 6 6 6 11 1 17 -2 13 -5z m-57 -8 c0 -11 -19 -15 -25 -6 -3 5 1 10 9
10 9 0 16 -2 16 -4z m990 0 c0 -11 -19 -15 -25 -6 -3 5 1 10 9 10 9 0 16 -2
16 -4z m370 -6 c0 -5 -5 -10 -11 -10 -5 0 -7 5 -4 10 3 6 8 10 11 10 2 0 4 -4
4 -10z m40 -6 c0 -8 -4 -12 -10 -9 -5 3 -10 10 -10 16 0 5 5 9 10 9 6 0 10 -7
10 -16z m50 6 c0 -5 -2 -10 -4 -10 -3 0 -8 5 -11 10 -3 6 -1 10 4 10 6 0 11
-4 11 -10z m130 0 c0 -5 -4 -10 -10 -10 -5 0 -10 5 -10 10 0 6 5 10 10 10 6 0
10 -4 10 -10z m-880 -10 c0 -13 -11 -13 -30 0 -12 8 -11 10 8 10 12 0 22 -4
22 -10z m60 -20 l13 -25 -20 20 c-11 11 -18 24 -16 28 6 10 7 9 23 -23z m130
16 c0 -2 -9 -6 -20 -9 -11 -3 -20 -1 -20 4 0 5 9 9 20 9 11 0 20 -2 20 -4z
m405 -46 c8 0 15 -5 15 -11 0 -6 -10 -9 -22 -7 -16 2 -24 11 -26 28 -2 22 -1
23 8 8 6 -10 18 -18 25 -18z m-242 3 c-12 -2 -23 -11 -25 -18 -2 -10 -8 -12
-17 -6 -22 14 -3 31 32 30 23 -1 26 -3 10 -6z m90 -10 c-7 -2 -19 -2 -25 0 -7
3 -2 5 12 5 14 0 19 -2 13 -5z m394 -23 c-1 -11 -6 -20 -12 -20 -6 0 -11 9
-11 20 0 11 6 20 13 20 6 0 11 -9 10 -20z m-472 0 c-3 -5 -12 -10 -18 -10 -7
0 -6 4 3 10 19 12 23 12 15 0z m179 4 c27 -10 18 -21 -15 -16 -22 3 -27 7 -18
13 17 11 14 10 33 3z m232 -8 c8 -8 14 -32 14 -53 0 -22 5 -44 11 -50 15 -15
-20 -78 -56 -99 -16 -10 -33 -22 -37 -28 -5 -7 -17 -1 -33 16 -30 32 -30 32
-9 52 13 13 14 22 5 46 -12 35 -9 36 24 14 15 -10 34 -14 49 -10 15 4 26 1 29
-7 9 -26 15 0 10 46 -5 39 -10 48 -30 53 -19 5 -21 9 -12 20 14 17 17 17 35 0z
m-309 -12 c-3 -3 -12 -4 -19 -1 -8 3 -5 6 6 6 11 1 17 -2 13 -5z m299 -57 c7
-20 11 -37 9 -37 -12 0 -45 46 -45 63 0 30 22 14 36 -26z m59 -21 c-2 -30 -13
-71 -24 -92 -11 -22 -20 -35 -21 -31 0 4 8 22 17 40 11 21 16 52 15 90 -2 34
1 56 7 53 5 -3 8 -30 6 -60z m305 39 c0 -8 -7 -15 -15 -15 -8 0 -15 7 -15 15
0 8 7 15 15 15 8 0 15 -7 15 -15z m-440 -5 c0 -5 -4 -10 -9 -10 -6 0 -13 5
-16 10 -3 6 1 10 9 10 9 0 16 -4 16 -10z m605 -48 c-9 -9 -25 11 -25 31 1 21
1 21 15 -3 7 -14 12 -27 10 -28z m-935 23 c0 -8 -4 -15 -10 -15 -5 0 -10 7
-10 15 0 8 5 15 10 15 6 0 10 -7 10 -15z m728 -7 c8 -8 15 -8 26 1 8 7 20 10
27 6 8 -6 7 -10 -2 -16 -10 -6 -11 -9 -1 -9 6 0 12 -4 12 -9 0 -6 -12 -6 -30
-1 -21 6 -30 5 -30 -3 0 -7 -5 -4 -11 6 -5 9 -17 17 -25 17 -8 0 -12 5 -9 10
8 13 28 13 43 -2z m-194 -13 c3 -9 14 -15 23 -13 12 2 19 -4 21 -17 2 -17 -4
-20 -42 -22 -47 -2 -59 9 -49 46 6 24 38 28 47 6z m166 -15 c0 -5 -4 -10 -10
-10 -5 0 -10 5 -10 10 0 6 5 10 10 10 6 0 10 -4 10 -10z m157 -25 c2 -20 -2
-35 -8 -35 -5 0 -7 4 -4 10 3 5 1 18 -4 28 -10 18 -6 32 8 32 3 0 7 -16 8 -35z
m293 25 c0 -5 -4 -10 -10 -10 -5 0 -10 5 -10 10 0 6 5 10 10 10 6 0 10 -4 10
-10z m-515 -6 c13 -5 14 -8 3 -15 -19 -13 -28 -11 -28 6 0 17 2 18 25 9z m365
-10 c0 -8 -4 -12 -10 -9 -5 3 -10 10 -10 16 0 5 5 9 10 9 6 0 10 -7 10 -16z
m-80 -9 c0 -8 -4 -15 -9 -15 -13 0 -22 16 -14 24 11 11 23 6 23 -9z m40 5 c0
-5 -4 -10 -10 -10 -5 0 -10 5 -10 10 0 6 5 10 10 10 6 0 10 -4 10 -10z m-280
-10 c0 -5 -4 -10 -10 -10 -5 0 -10 5 -10 10 0 6 5 10 10 10 6 0 10 -4 10 -10z
m100 0 c0 -5 -2 -10 -4 -10 -3 0 -8 5 -11 10 -3 6 -1 10 4 10 6 0 11 -4 11
-10z m47 -12 c-3 -8 -6 -5 -6 6 -1 11 2 17 5 13 3 -3 4 -12 1 -19z m-355 -20
c-8 -8 -9 -4 -5 13 4 13 8 18 11 10 2 -7 -1 -18 -6 -23z m458 7 c3 -6 -5 -11
-17 -13 -15 -2 -23 2 -23 11 0 15 32 17 40 2z m-288 -55 c-2 -33 -7 -60 -10
-60 -7 0 -4 84 3 108 8 24 10 11 7 -48z m58 56 c0 -16 -21 -56 -30 -56 -16 0
-12 27 6 34 8 3 12 10 9 16 -3 5 -1 10 4 10 6 0 11 -2 11 -4z m44 -37 c4 -20
0 -31 -16 -45 -17 -14 -19 -15 -10 -2 9 11 11 29 6 55 -7 43 9 36 20 -8z m26
20 c0 -5 -4 -9 -10 -9 -5 0 -10 7 -10 16 0 8 5 12 10 9 6 -3 10 -10 10 -16z
m260 12 c0 -14 -18 -23 -30 -16 -6 4 -8 11 -5 16 8 12 35 12 35 0z m-507 -30
c-4 -17 -8 -19 -14 -9 -12 18 -11 31 1 23 6 -3 10 -1 10 6 0 7 2 10 5 8 2 -3
2 -15 -2 -28z m28 2 c-8 -15 -10 -15 -11 -2 0 17 10 32 18 25 2 -3 -1 -13 -7
-23z m69 17 c0 -5 -7 -7 -15 -4 -9 4 -15 0 -15 -10 0 -9 5 -15 11 -13 6 1 14
-4 16 -10 3 -7 -2 -13 -10 -13 -21 0 -28 -26 -11 -40 8 -7 14 -18 14 -24 0 -6
-12 2 -25 17 -14 16 -30 25 -36 22 -6 -4 -5 2 2 14 10 14 15 17 21 8 4 -7 8 4
8 26 0 30 4 37 20 37 11 0 20 -4 20 -10z m-1517 -7 c-13 -2 -30 -14 -38 -26
-8 -12 -15 -16 -15 -10 0 7 -8 10 -17 7 -10 -3 -2 4 17 15 19 11 44 20 55 19
17 -1 17 -1 -2 -5z m1368 -12 c7 11 9 10 9 -3 0 -9 -4 -20 -10 -23 -5 -3 -10
-1 -10 5 0 6 -4 8 -10 5 -6 -4 -7 1 -3 11 5 13 8 14 11 5 4 -11 6 -11 13 0z
m399 -21 c0 -16 -4 -30 -10 -30 -5 0 -10 -10 -10 -22 0 -12 -2 -19 -5 -16 -8
8 7 98 16 98 5 0 9 -13 9 -30z m-1755 10 c-3 -5 -11 -10 -16 -10 -6 0 -7 5 -4
10 3 6 11 10 16 10 6 0 7 -4 4 -10z m1605 -5 c0 -8 -7 -15 -15 -15 -8 0 -15
-4 -15 -10 0 -5 -5 -10 -10 -10 -12 0 21 49 33 50 4 0 7 -7 7 -15z m292 0 c0
-5 -5 -11 -11 -13 -6 -2 -11 4 -11 13 0 9 5 15 11 13 6 -2 11 -8 11 -13z
m-1972 -19 c0 -11 -19 -15 -25 -6 -3 5 1 10 9 10 9 0 16 -2 16 -4z m60 -32 c0
-3 -7 -1 -15 6 -8 7 -15 17 -15 22 0 5 7 3 15 -6 8 -8 15 -18 15 -22z m15 26
c3 -6 -1 -7 -9 -4 -18 7 -21 14 -7 14 6 0 13 -4 16 -10z m1325 0 c0 -5 -5 -10
-11 -10 -5 0 -7 5 -4 10 3 6 8 10 11 10 2 0 4 -4 4 -10z m-57 -6 c-7 -3 -10
-11 -7 -18 3 -7 -5 -21 -16 -31 -20 -18 -21 -18 -35 1 -8 10 -15 22 -15 26 0
14 22 20 33 9 9 -9 9 -14 -2 -20 -9 -6 -10 -11 -2 -15 6 -4 12 -1 13 6 0 7 2
18 3 23 2 6 3 13 4 18 0 4 9 7 19 6 9 0 12 -3 5 -5z m577 -15 c0 -11 -4 -17
-10 -14 -5 3 -10 13 -10 21 0 8 5 14 10 14 6 0 10 -9 10 -21z m107 -11 c-3 -8
-6 -5 -6 6 -1 11 2 17 5 13 3 -3 4 -12 1 -19z m-1457 -24 c0 -8 -5 -14 -11
-14 -5 0 -7 6 -3 13 5 8 2 7 -9 -2 -10 -8 -20 -11 -24 -7 -8 8 29 36 39 30 5
-3 8 -12 8 -20z m785 -8 c-10 -14 -21 -26 -26 -26 -5 0 0 13 12 30 27 36 38
33 14 -4z m277 25 c6 10 7 7 3 -10 -5 -16 -4 -21 4 -17 7 5 8 1 4 -10 -5 -14
-3 -16 13 -10 16 6 17 5 6 -6 -11 -11 -16 -10 -26 4 -7 10 -15 16 -17 14 -2
-3 -5 8 -5 22 -1 15 1 21 3 13 5 -11 7 -11 15 0z m48 -19 c0 -15 -2 -15 -10
-2 -13 20 -13 33 0 25 6 -3 10 -14 10 -23z m220 9 c0 -6 -4 -13 -10 -16 -5 -3
-10 1 -10 9 0 9 5 16 10 16 6 0 10 -4 10 -9z m-384 -15 c13 3 24 2 24 -4 0 -5
-7 -9 -16 -8 -11 0 -18 -7 -19 -21 -2 -28 -15 -43 -15 -18 0 14 -3 15 -15 5
-8 -7 -15 -9 -15 -5 0 4 8 14 18 21 10 8 12 13 5 14 -8 0 -10 7 -6 17 4 11 8
12 11 5 2 -7 13 -10 28 -6z m321 -78 c-2 -18 -4 -4 -4 32 0 36 2 50 4 33 2
-18 2 -48 0 -65z m193 71 c0 -5 -7 -9 -15 -9 -9 0 -12 6 -9 15 6 15 24 11 24
-6z m-105 -19 c3 -6 -1 -7 -9 -4 -18 7 -21 14 -7 14 6 0 13 -4 16 -10z m-309
-29 c-4 -6 -12 -11 -18 -11 -7 0 -7 4 1 13 6 8 9 16 7 19 -1 3 1 2 7 -2 5 -5
6 -13 3 -19z m-166 11 c0 -5 -9 -19 -20 -32 -25 -28 -26 -18 -2 15 19 27 22
29 22 17z m526 -46 c8 -8 14 -21 14 -28 0 -10 3 -9 10 2 8 11 9 7 4 -15 -16
-67 -21 -79 -35 -83 -12 -5 -12 -3 -1 11 8 9 11 21 7 27 -5 7 -11 5 -20 -7 -7
-10 -16 -15 -20 -11 -6 6 4 18 40 43 11 7 16 17 12 21 -4 5 -11 4 -15 -1 -10
-14 -46 -19 -37 -6 3 6 13 11 21 11 8 0 14 7 14 15 0 8 -7 15 -15 15 -8 0 -15
5 -15 10 0 15 19 12 36 -4z m-475 -66 c-11 -20 -18 -40 -14 -43 8 -8 -17 -67
-28 -67 -14 0 -10 16 7 31 8 7 13 21 10 32 -2 10 4 33 15 50 10 18 19 41 20
52 1 19 2 19 6 1 3 -10 -4 -36 -16 -56z m394 49 c-4 -5 -16 -8 -28 -8 -17 1
-18 2 -4 6 9 2 17 9 17 14 0 6 5 7 10 4 6 -4 8 -11 5 -16z m-495 -4 c0 -8 -6
-15 -14 -15 -8 0 -16 -7 -20 -15 -3 -8 -1 -15 5 -15 6 0 7 -5 3 -11 -5 -8 -8
-8 -13 0 -4 7 -12 3 -21 -10 -17 -23 -69 -53 -78 -45 -3 3 0 6 7 6 15 0 111
95 111 110 0 6 5 10 10 10 6 0 10 -7 10 -15z m187 -4 c-1 -12 -6 -17 -16 -13
-10 4 -11 7 -3 10 7 2 10 8 6 13 -3 5 -1 9 5 9 5 0 9 -9 8 -19z m-427 -1 c-8
-5 -19 -10 -25 -10 -5 0 -3 5 5 10 8 5 20 10 25 10 6 0 3 -5 -5 -10z m-40 -12
c0 -15 -18 -17 -30 -3 -9 11 -8 14 9 12 12 -1 21 -5 21 -9z m800 -17 c14 -26
13 -38 -2 -23 -7 7 -25 12 -40 12 -47 0 -31 24 19 29 7 0 17 -8 23 -18z m130
15 c0 -3 -4 -8 -10 -11 -5 -3 -10 -1 -10 4 0 6 5 11 10 11 6 0 10 -2 10 -4z
m-500 -21 c-7 -8 -17 -15 -22 -15 -11 0 14 29 26 30 5 0 3 -7 -4 -15z m269
-37 c1 -24 3 -54 5 -68 3 -14 5 -34 5 -45 1 -17 3 -17 11 -5 8 12 10 12 10 1
0 -10 5 -10 25 3 14 9 25 12 25 6 0 -6 -14 -19 -31 -29 -17 -10 -25 -21 -19
-23 7 -2 -4 -16 -24 -31 -38 -30 -56 -29 -53 2 1 12 6 17 17 13 8 -3 12 -1 7
3 -4 5 -1 16 7 24 11 12 13 26 7 51 -7 32 -7 53 -3 118 3 37 10 24 11 -20z
m58 6 c-3 -3 -12 -4 -19 -1 -8 3 -5 6 6 6 11 1 17 -2 13 -5z m-344 -29 c-16
-22 -33 -32 -33 -20 0 8 34 43 43 44 4 1 0 -10 -10 -24z m367 -13 c39 4 50 2
50 -9 0 -8 -5 -11 -12 -7 -7 5 -9 1 -6 -12 4 -17 0 -19 -40 -18 -27 1 -39 -1
-31 -7 7 -4 10 -11 6 -15 -3 -4 -13 -1 -22 6 -11 9 -12 16 -5 25 8 9 8 15 0
20 -5 3 -10 18 -9 33 l0 27 10 -24 c8 -21 14 -23 59 -19z m-1595 18 c3 -5 -1
-10 -10 -10 -9 0 -13 5 -10 10 3 6 8 10 10 10 2 0 7 -4 10 -10z m625 -30 c-20
-13 -33 -13 -25 0 3 6 14 10 23 10 15 0 15 -2 2 -10z m560 -35 c-7 -8 -17 -15
-23 -15 -6 0 -2 7 9 15 25 19 30 19 14 0z m-60 -36 c0 -6 -4 -7 -10 -4 -5 3
-10 11 -10 16 0 6 5 7 10 4 6 -3 10 -11 10 -16z m364 -4 c-4 -8 -8 -15 -10
-15 -2 0 -4 7 -4 15 0 8 4 15 10 15 5 0 7 -7 4 -15z m-1039 -15 c-3 -5 -12
-10 -18 -10 -7 0 -6 4 3 10 19 12 23 12 15 0z m650 -20 c-6 -9 -9 -9 -16 1
-10 17 0 34 13 21 6 -6 7 -16 3 -22z m-25 -14 c0 -3 -4 -8 -10 -11 -5 -3 -10
-1 -10 4 0 6 5 11 10 11 6 0 10 -2 10 -4z m-280 -520 c0 -3 -4 -8 -10 -11 -5
-3 -10 -1 -10 4 0 6 5 11 10 11 6 0 10 -2 10 -4z m90 -216 c0 -5 -4 -10 -10
-10 -5 0 -10 5 -10 10 0 6 5 10 10 10 6 0 10 -4 10 -10z m-100 -10 c0 -5 -5
-10 -11 -10 -5 0 -7 5 -4 10 3 6 8 10 11 10 2 0 4 -4 4 -10z m-230 -20 c0 -5
-2 -10 -4 -10 -3 0 -8 5 -11 10 -3 6 -1 10 4 10 6 0 11 -4 11 -10z m260 -64
c0 -3 -4 -8 -10 -11 -5 -3 -10 -1 -10 4 0 6 5 11 10 11 6 0 10 -2 10 -4z
m-117 -66 c-3 -11 -9 -20 -15 -20 -5 0 -4 9 2 20 6 11 12 20 14 20 2 0 2 -9
-1 -20z m-190 -5 c-3 -9 -8 -14 -10 -11 -3 3 -2 9 2 15 9 16 15 13 8 -4z m234
-21 c-3 -3 -12 -4 -19 -1 -8 3 -5 6 6 6 11 1 17 -2 13 -5z m-356 -81 c13 -17
13 -17 -6 -3 -11 8 -22 16 -24 17 -2 2 0 3 6 3 6 0 17 -8 24 -17z m702 -1280
c-7 -2 -19 -2 -25 0 -7 3 -2 5 12 5 14 0 19 -2 13 -5z"/>
<path d="M4119 2941 c11 -7 9 -10 -8 -16 -13 -4 -20 -9 -18 -11 2 -3 16 1 31
7 19 9 23 15 14 21 -7 4 -17 8 -23 8 -5 0 -4 -4 4 -9z"/>
<path d="M3890 4120 c0 -5 -15 -10 -32 -11 -18 0 -42 -5 -53 -10 -16 -7 -12
-8 14 -4 18 3 50 5 70 6 20 0 30 3 23 6 -6 2 -10 9 -6 14 3 5 0 9 -5 9 -6 0
-11 -4 -11 -10z"/>
<path d="M3934 4115 c8 -8 17 -15 20 -15 3 0 3 7 0 15 -4 8 -13 15 -21 15 -12
0 -12 -2 1 -15z"/>
<path d="M3990 4115 c-7 -8 -9 -15 -6 -15 4 0 14 7 22 15 9 8 11 15 6 15 -5 0
-15 -7 -22 -15z"/>
<path d="M4015 4100 c3 -5 8 -10 11 -10 2 0 4 5 4 10 0 6 -5 10 -11 10 -5 0
-7 -4 -4 -10z"/>
<path d="M3745 4090 c-7 -12 -9 -11 35 -16 19 -2 28 -1 20 3 -8 3 -23 10 -32
14 -10 6 -19 5 -23 -1z"/>
<path d="M3853 4083 c9 -2 25 -2 35 0 9 3 1 5 -18 5 -19 0 -27 -2 -17 -5z"/>
<path d="M4128 4077 c-26 -6 -38 -15 -38 -27 0 -13 -6 -16 -24 -13 -16 3 -31
-2 -45 -16 -27 -27 -26 -31 3 -31 13 0 32 -3 42 -7 16 -6 16 -7 -2 -15 -12 -5
-7 -6 15 -2 25 5 32 3 26 -6 -6 -10 3 -11 44 -6 33 4 59 2 73 -5 17 -9 23 -9
26 1 3 7 7 8 11 3 3 -6 53 -12 111 -15 58 -3 92 -3 75 1 -22 5 -26 9 -16 15
11 7 11 10 0 17 -19 12 -32 11 -24 -1 3 -5 0 -7 -9 -4 -8 3 -12 12 -9 20 3 8
-1 14 -10 14 -8 0 -28 7 -43 15 -16 8 -37 15 -46 15 -10 0 -18 5 -18 11 0 6 7
9 15 5 8 -3 15 -1 15 4 0 9 -17 14 -47 13 -7 -1 -11 3 -8 7 8 13 -24 20 -49
10 -14 -5 -26 -6 -28 -1 -2 4 -20 3 -40 -2z m92 -7 c0 -5 -8 -10 -17 -10 -15
0 -16 2 -3 10 19 12 20 12 20 0z m-70 -26 c0 -8 -4 -14 -10 -14 -5 0 -10 9
-10 21 0 11 5 17 10 14 6 -3 10 -13 10 -21z m100 -4 c0 -5 -5 -10 -11 -10 -5
0 -7 5 -4 10 3 6 8 10 11 10 2 0 4 -4 4 -10z m-58 -42 c-7 -7 -12 -8 -12 -2 0
6 3 14 7 17 3 4 9 5 12 2 2 -3 -1 -11 -7 -17z m-57 -4 c28 -18 33 -34 10 -34
-8 0 -14 6 -12 13 1 8 -8 11 -25 9 -20 -2 -28 2 -28 13 0 20 24 19 55 -1z
m135 -14 c0 -5 -10 -10 -22 -9 -22 0 -22 1 -3 9 11 5 21 9 23 9 1 1 2 -3 2 -9z
m80 0 c0 -5 -5 -10 -11 -10 -5 0 -7 5 -4 10 3 6 8 10 11 10 2 0 4 -4 4 -10z
m-46 -15 c3 -9 0 -15 -8 -15 -7 0 -13 7 -13 15 0 8 4 15 8 15 4 0 9 -7 13 -15z"/>
<path d="M3677 4073 c-14 -14 -6 -20 19 -15 19 3 22 7 12 13 -16 11 -23 11
-31 2z"/>
<path d="M2934 4063 c11 -11 46 -14 46 -3 0 6 -12 10 -27 10 -14 0 -23 -3 -19
-7z"/>
<path d="M4000 4055 c0 -8 7 -15 15 -15 8 0 15 7 15 15 0 8 -7 15 -15 15 -8 0
-15 -7 -15 -15z"/>
<path d="M3848 4043 c7 -3 16 -2 19 1 4 3 -2 6 -13 5 -11 0 -14 -3 -6 -6z"/>
<path d="M3910 3989 c11 -8 6 -9 -20 -5 -28 5 -31 3 -17 -5 23 -14 78 -2 56
12 -20 12 -37 11 -19 -2z"/>
<path d="M3968 3983 c7 -3 16 -2 19 1 4 3 -2 6 -13 5 -11 0 -14 -3 -6 -6z"/>
<path d="M3975 3970 c-27 -7 -28 -8 -5 -8 14 0 34 3 45 8 25 11 2 11 -40 0z"/>
<path d="M2098 3933 c7 -3 16 -2 19 1 4 3 -2 6 -13 5 -11 0 -14 -3 -6 -6z"/>
<path d="M3980 3930 c-15 -5 1 -6 39 -2 51 4 63 3 56 -8 -5 -9 -4 -11 4 -6 35
22 -42 34 -99 16z"/>
<path d="M4155 3920 c-4 -6 -15 -8 -26 -5 -11 4 -19 2 -19 -4 0 -6 -7 -11 -15
-11 -18 0 -20 -16 -2 -23 6 -3 -1 -4 -18 -1 -39 6 -53 -5 -61 -44 -6 -27 -4
-31 10 -26 9 3 16 2 16 -4 0 -5 21 -13 48 -16 83 -10 96 -12 134 -25 21 -7 42
-10 48 -6 5 3 10 1 10 -4 0 -15 33 -14 49 2 10 10 11 9 6 -5 -6 -14 -2 -18 14
-18 12 0 21 -4 21 -9 0 -4 -11 -6 -25 -3 -14 2 -32 -1 -40 -8 -8 -7 -25 -10
-40 -6 -14 4 -25 2 -25 -4 0 -5 11 -10 24 -10 14 0 28 -5 31 -11 4 -6 14 -8
23 -4 9 3 13 3 9 -1 -3 -4 2 -14 12 -23 10 -9 23 -26 30 -39 8 -16 18 -22 29
-18 15 5 15 5 0 -8 -17 -12 -17 -14 0 -30 22 -19 39 -21 45 -3 3 7 9 2 16 -13
l12 -25 -7 25 c-3 14 -8 43 -10 65 -5 59 -7 65 -15 59 -5 -2 -4 -16 2 -31 5
-14 8 -28 5 -30 -2 -2 -9 11 -15 28 -13 37 2 57 27 37 10 -9 12 -8 10 3 -4 18
-30 29 -44 18 -8 -6 -17 -1 -28 16 -17 26 -17 26 11 20 19 -4 22 -3 10 3 -17
7 -17 9 -3 21 9 7 16 28 16 45 0 17 9 48 20 69 l20 37 -20 0 c-11 0 -20 4 -20
9 0 12 -108 13 -115 1 -9 -14 -36 -13 -32 2 3 15 -118 24 -128 8z m74 -9 c9
-6 10 -11 2 -15 -6 -4 -11 -3 -11 2 0 14 -49 9 -55 -5 -2 -7 -11 -13 -20 -13
-13 0 -12 3 3 19 18 21 58 26 81 12z m201 -23 c9 -3 5 -7 -12 -10 -18 -3 -29
0 -32 9 -3 8 -1 11 4 8 6 -3 10 0 10 7 0 9 3 9 8 2 4 -6 14 -13 22 -16z m-230
-8 c0 -5 -5 -10 -11 -10 -6 0 -9 -8 -7 -18 5 -17 0 -18 -46 -16 l-51 3 48 -9
c68 -12 77 -24 27 -33 -14 -2 -19 -2 -12 0 6 3 12 9 12 15 0 6 -7 7 -17 2 -10
-4 -35 -9 -55 -12 -30 -3 -38 -1 -38 12 0 9 5 16 10 16 6 0 10 -4 10 -10 0 -5
8 -10 18 -9 10 0 12 3 5 6 -28 11 -11 31 31 37 24 4 47 13 50 21 6 17 26 20
26 5z m119 -40 c11 0 21 -5 21 -10 0 -13 -47 -5 -66 11 -7 6 -11 16 -7 22 4 6
11 4 18 -6 7 -10 22 -17 34 -17z m106 20 c3 -5 1 -10 -4 -10 -6 0 -11 5 -11
10 0 6 2 10 4 10 3 0 8 -4 11 -10z m-208 -22 c-3 -8 -6 -5 -6 6 -1 11 2 17 5
13 3 -3 4 -12 1 -19z m200 -40 c-3 -7 -5 -2 -5 12 0 14 2 19 5 13 2 -7 2 -19
0 -25z m-157 -7 c0 -16 -15 -20 -41 -14 l-24 7 25 7 c36 10 40 10 40 0z m81
-6 c-1 -10 -20 -14 -34 -7 -4 2 -5 8 -1 13 7 13 35 8 35 -6z m-1 -79 c0 -2 -7
-7 -16 -10 -8 -3 -12 -2 -9 4 6 10 25 14 25 6z m43 -18 c3 -8 -4 -13 -19 -13
-22 0 -23 1 -7 13 9 6 18 12 19 12 1 0 4 -6 7 -12z"/>
<path d="M4018 3913 c6 -2 18 -2 25 0 6 3 1 5 -13 5 -14 0 -19 -2 -12 -5z"/>
<path d="M3953 3870 c2 -23 0 -41 -7 -44 -7 -3 -6 -5 2 -5 29 -2 48 18 50 53
2 33 0 36 -24 36 -24 0 -26 -2 -21 -40z"/>
<path d="M4515 3900 c3 -5 8 -10 11 -10 2 0 4 5 4 10 0 6 -5 10 -11 10 -5 0
-7 -4 -4 -10z"/>
<path d="M4460 3823 c0 -15 -2 -16 -10 -3 -7 11 -10 4 -10 -27 0 -23 -5 -44
-12 -47 -7 -4 -3 -4 10 -2 20 4 21 2 11 -11 -11 -13 -10 -14 10 -11 19 2 24
10 26 43 1 22 4 46 6 54 2 8 -4 17 -13 19 -12 2 -18 -3 -18 -15z"/>
<path d="M3950 3790 c8 -5 22 -10 30 -10 13 0 13 1 0 10 -8 5 -22 10 -30 10
-13 0 -13 -1 0 -10z"/>
<path d="M4186 3727 c12 -7 19 -18 17 -24 -3 -7 3 -13 12 -13 9 0 13 5 10 11
-4 6 0 16 9 22 13 10 9 12 -26 14 -38 1 -40 0 -22 -10z"/>
<path d="M4137 3722 c-10 -2 -16 -9 -14 -15 5 -16 36 -22 48 -10 13 13 -11 31
-34 25z"/>
<path d="M4260 3720 c0 -5 7 -10 15 -10 8 0 15 5 15 10 0 6 -7 10 -15 10 -8 0
-15 -4 -15 -10z"/>
<path d="M2473 3713 c9 -2 23 -2 30 0 6 3 -1 5 -18 5 -16 0 -22 -2 -12 -5z"/>
<path d="M2428 3703 c7 -3 16 -2 19 1 4 3 -2 6 -13 5 -11 0 -14 -3 -6 -6z"/>
<path d="M2497 3696 l-37 -11 34 -19 c34 -18 67 -19 67 -1 0 6 -15 13 -33 16
-31 6 -30 6 12 8 33 1 41 4 30 11 -18 12 -24 11 -73 -4z"/>
<path d="M2352 3689 c-13 -5 -27 -7 -31 -4 -15 9 -80 -16 -84 -33 -4 -16 -5
-16 -6 1 -1 18 -31 25 -31 7 0 -5 -9 -10 -20 -10 -23 0 -26 -10 -8 -28 9 -9 9
-12 0 -12 -7 0 -12 -7 -12 -15 0 -8 4 -15 9 -15 6 0 7 -17 5 -37 -4 -29 -3
-34 5 -23 9 12 11 11 11 -7 0 -13 -4 -23 -10 -23 -5 0 -10 -14 -10 -31 0 -27
2 -29 15 -15 8 8 15 25 16 38 1 13 5 34 10 48 8 22 8 20 4 -8 -3 -22 0 -39 10
-48 13 -14 14 -10 10 33 -2 26 -1 43 3 38 8 -12 47 -31 82 -41 l25 -7 -25 21
c-23 18 -23 22 -11 46 8 14 21 26 29 26 11 0 13 9 8 45 -6 36 -4 45 8 45 8 0
22 -7 30 -16 13 -13 16 -13 16 -1 0 10 8 13 28 10 25 -4 25 -3 -7 12 -38 17
-38 17 -69 4z m-132 -68 c0 -20 -17 -37 -27 -28 -7 8 7 47 18 47 5 0 9 -9 9
-19z"/>
<path d="M4248 3673 c7 -3 16 -2 19 1 4 3 -2 6 -13 5 -11 0 -14 -3 -6 -6z"/>
<path d="M2803 3637 c4 -10 7 -25 7 -33 0 -8 5 -14 10 -14 16 0 11 36 -7 51
-15 12 -16 12 -10 -4z"/>
<path d="M4320 3602 c0 -12 19 -26 26 -19 2 2 -2 10 -11 17 -9 8 -15 8 -15 2z"/>
<path d="M2898 3593 c7 -3 16 -2 19 1 4 3 -2 6 -13 5 -11 0 -14 -3 -6 -6z"/>
<path d="M3158 3593 c7 -3 16 -2 19 1 4 3 -2 6 -13 5 -11 0 -14 -3 -6 -6z"/>
<path d="M2723 3550 c0 -25 2 -35 4 -22 2 12 2 32 0 45 -2 12 -4 2 -4 -23z"/>
<path d="M2590 3570 c0 -5 7 -10 15 -10 8 0 15 5 15 10 0 6 -7 10 -15 10 -8 0
-15 -4 -15 -10z"/>
<path d="M3200 3544 c0 -8 5 -12 10 -9 6 4 8 11 5 16 -9 14 -15 11 -15 -7z"/>
<path d="M2500 3524 c-11 -28 -6 -44 14 -44 22 0 34 23 25 48 -11 29 -27 28
-39 -4z"/>
<path d="M3357 3543 c-4 -3 -7 -13 -7 -21 0 -12 3 -12 15 -2 8 7 15 16 15 21
0 11 -14 12 -23 2z"/>
<path d="M3422 3537 c-9 -10 -6 -18 10 -31 17 -15 20 -16 15 -3 -3 9 -2 19 4
22 10 7 3 25 -10 25 -5 0 -13 -6 -19 -13z"/>
<path d="M2590 3530 c0 -5 7 -10 15 -10 8 0 15 5 15 10 0 6 -7 10 -15 10 -8 0
-15 -4 -15 -10z"/>
<path d="M3490 3504 c0 -14 3 -14 15 -4 8 7 15 14 15 16 0 2 -7 4 -15 4 -8 0
-15 -7 -15 -16z"/>
<path d="M2800 3482 c0 -18 4 -31 9 -27 5 3 13 1 16 -5 9 -15 35 7 35 30 0 24
-11 32 -27 18 -11 -9 -17 -9 -24 3 -6 10 -9 5 -9 -19z"/>
<path d="M2340 3490 c-9 -6 -10 -10 -3 -10 6 0 15 5 18 10 8 12 4 12 -15 0z"/>
<path d="M2465 3490 c-3 -5 -1 -10 4 -10 6 0 11 5 11 10 0 6 -2 10 -4 10 -3 0
-8 -4 -11 -10z"/>
<path d="M2700 3480 c-13 -9 -13 -11 0 -20 15 -10 25 0 18 20 -2 6 -8 6 -18 0z"/>
<path d="M2900 3465 c-11 -13 -15 -13 -21 -3 -7 10 -9 9 -9 -4 0 -9 -8 -22
-17 -28 -15 -9 -13 -10 11 -5 32 7 76 33 76 46 0 15 -27 10 -40 -6z"/>
<path d="M3200 3459 c0 -5 5 -7 10 -4 6 3 10 8 10 11 0 2 -4 4 -10 4 -5 0 -10
-5 -10 -11z"/>
<path d="M3233 3458 c2 -7 10 -13 17 -13 7 0 15 6 18 13 2 7 -5 12 -18 12 -13
0 -20 -5 -17 -12z"/>
<path d="M2470 3443 c1 -18 18 -35 24 -24 4 6 4 16 1 21 -7 12 -25 13 -25 3z"/>
<path d="M2652 3418 c7 -19 38 -22 38 -4 0 10 -9 16 -21 16 -12 0 -19 -5 -17
-12z"/>
<path d="M2700 3403 c-15 -34 -53 -46 -63 -20 -3 9 -9 8 -22 -5 -19 -17 -13
-38 11 -38 8 0 14 -4 14 -10 0 -5 -4 -10 -10 -10 -5 0 -10 -4 -10 -10 0 -21
20 -9 26 15 3 14 13 25 21 25 8 0 11 -4 8 -10 -8 -13 8 -13 42 2 39 17 38 16
21 35 -9 10 -18 27 -20 38 -3 17 -6 15 -18 -12z"/>
<path d="M2918 3423 c7 -3 16 -2 19 1 4 3 -2 6 -13 5 -11 0 -14 -3 -6 -6z"/>
<path d="M2960 3415 c0 -8 6 -15 14 -15 7 0 19 7 26 15 11 13 8 15 -14 15 -16
0 -26 -5 -26 -15z"/>
<path d="M3060 3421 c0 -16 19 -23 40 -16 30 10 24 25 -10 25 -16 0 -30 -4
-30 -9z"/>
<path d="M2880 3411 c0 -6 -9 -11 -19 -11 -11 0 -23 -4 -26 -10 -9 -14 15 -12
44 4 15 8 20 16 12 20 -6 4 -11 2 -11 -3z"/>
<path d="M3281 3355 c1 -22 3 -32 6 -22 5 21 22 22 29 2 4 -8 10 -15 15 -15 5
0 9 7 9 15 0 8 -5 15 -11 15 -6 0 -19 10 -30 23 l-18 22 0 -40z"/>
<path d="M2926 3365 c4 -8 8 -15 10 -15 2 0 4 7 4 15 0 8 -4 15 -10 15 -5 0
-7 -7 -4 -15z"/>
<path d="M3180 3365 c-10 -12 -10 -15 4 -15 9 0 16 7 16 15 0 8 -2 15 -4 15
-2 0 -9 -7 -16 -15z"/>
<path d="M2539 3357 c-18 -14 -14 -37 7 -37 8 0 14 10 14 25 0 29 0 28 -21 12z"/>
<path d="M3410 3333 c0 -13 5 -23 10 -23 13 0 13 11 0 30 -8 12 -10 11 -10 -7z"/>
<path d="M3440 3335 c0 -8 6 -15 14 -15 8 0 16 7 20 15 4 10 -1 15 -14 15 -11
0 -20 -7 -20 -15z"/>
<path d="M2180 3330 c0 -5 5 -10 10 -10 6 0 10 5 10 10 0 6 -4 10 -10 10 -5 0
-10 -4 -10 -10z"/>
<path d="M2570 3321 c-15 -30 -12 -33 15 -15 14 9 22 20 19 25 -9 15 -23 10
-34 -10z"/>
<path d="M2705 3320 c3 -5 8 -10 11 -10 2 0 4 5 4 10 0 6 -5 10 -11 10 -5 0
-7 -4 -4 -10z"/>
<path d="M2670 3310 c0 -5 5 -10 10 -10 6 0 10 5 10 10 0 6 -4 10 -10 10 -5 0
-10 -4 -10 -10z"/>
<path d="M3073 3290 c-6 -23 -19 -26 -26 -7 -3 6 -6 2 -6 -10 -1 -14 5 -23 14
-23 8 0 15 4 15 9 0 5 9 11 20 14 24 6 27 37 4 37 -9 0 -18 -9 -21 -20z"/>
<path d="M3343 3294 c-3 -9 0 -20 8 -24 7 -5 11 -12 7 -15 -3 -4 -19 1 -35 11
-15 10 -22 12 -16 4 9 -10 10 -17 2 -27 -19 -22 64 -17 92 7 21 16 21 19 6 20
-10 0 -20 6 -23 14 -8 22 -34 28 -41 10z"/>
<path d="M2923 3230 c0 -25 2 -35 4 -22 2 12 2 32 0 45 -2 12 -4 2 -4 -23z"/>
<path d="M3225 3260 c3 -5 17 -10 31 -10 13 0 24 5 24 10 0 6 -14 10 -31 10
-17 0 -28 -4 -24 -10z"/>
<path d="M3440 3235 c0 -14 5 -25 11 -25 6 0 8 7 5 17 -4 9 -1 20 6 25 10 6 8
8 -4 8 -13 0 -18 -8 -18 -25z"/>
<path d="M3480 3230 c0 -5 7 -10 16 -10 8 0 12 5 9 10 -3 6 -10 10 -16 10 -5
0 -9 -4 -9 -10z"/>
<path d="M2780 3215 c-7 -9 -8 -15 -2 -15 5 0 12 7 16 15 3 8 4 15 2 15 -2 0
-9 -7 -16 -15z"/>
<path d="M3066 3205 c-3 -8 -1 -15 3 -15 5 0 11 7 15 15 3 8 1 15 -3 15 -5 0
-11 -7 -15 -15z"/>
<path d="M2971 3174 c0 -11 3 -14 6 -6 3 7 2 16 -1 19 -3 4 -6 -2 -5 -13z"/>
<path d="M3018 3183 c7 -3 16 -2 19 1 4 3 -2 6 -13 5 -11 0 -14 -3 -6 -6z"/>
<path d="M3503 3173 c-15 -5 -17 -23 -4 -23 5 0 11 7 15 15 3 8 4 15 3 14 -1
0 -8 -3 -14 -6z"/>
<path d="M3614 3159 c-19 -22 -19 -22 4 -8 12 8 22 17 22 21 0 12 -6 9 -26
-13z"/>
<path d="M3253 3163 c-21 -8 -15 -33 7 -33 11 0 20 6 20 14 0 8 6 17 13 19 6
3 3 5 -8 5 -11 0 -26 -2 -32 -5z"/>
<path d="M2994 3135 c4 -17 2 -25 -6 -25 -7 0 -1 -12 14 -26 32 -32 67 -28 46
6 -7 11 -18 20 -25 20 -7 0 -13 11 -13 25 0 14 -5 25 -11 25 -7 0 -9 -10 -5
-25z"/>
<path d="M3324 3151 c3 -5 14 -11 25 -14 14 -3 18 -1 14 9 -3 8 -14 14 -25 14
-10 0 -17 -4 -14 -9z"/>
<path d="M2626 3128 c3 -4 11 -5 19 -1 21 7 19 12 -4 10 -11 0 -18 -5 -15 -9z"/>
<path d="M3486 3131 c-3 -5 5 -12 19 -15 29 -7 32 -21 8 -35 -10 -6 -14 -11
-10 -11 4 0 19 7 33 16 l25 17 -31 18 c-35 22 -37 22 -44 10z"/>
<path d="M2680 3090 c0 -5 4 -10 9 -10 6 0 13 5 16 10 3 6 -1 10 -9 10 -9 0
-16 -4 -16 -10z"/>
<path d="M3443 3073 c9 -2 23 -2 30 0 6 3 -1 5 -18 5 -16 0 -22 -2 -12 -5z"/>
<path d="M2740 3060 c0 -5 5 -10 10 -10 6 0 10 5 10 10 0 6 -4 10 -10 10 -5 0
-10 -4 -10 -10z"/>
<path d="M2843 3023 c9 -2 23 -2 30 0 6 3 -1 5 -18 5 -16 0 -22 -2 -12 -5z"/>
<path d="M2920 3020 c0 -5 15 -10 33 -10 24 0 28 3 17 10 -20 13 -50 13 -50 0z"/>
<path d="M3275 3020 c3 -5 8 -10 11 -10 2 0 4 5 4 10 0 6 -5 10 -11 10 -5 0
-7 -4 -4 -10z"/>
<path d="M3228 3013 c7 -3 16 -2 19 1 4 3 -2 6 -13 5 -11 0 -14 -3 -6 -6z"/>
<path d="M2865 3000 c11 -5 27 -9 35 -9 9 0 8 4 -5 9 -11 5 -27 9 -35 9 -9 0
-8 -4 5 -9z"/>
<path d="M3008 3003 c7 -3 16 -2 19 1 4 3 -2 6 -13 5 -11 0 -14 -3 -6 -6z"/>
<path d="M3175 3001 c-6 -11 33 -26 43 -16 4 3 0 10 -8 15 -19 12 -27 12 -35
1z"/>
<path d="M900 2930 c-9 -6 -10 -10 -3 -10 6 0 15 5 18 10 8 12 4 12 -15 0z"/>
<path d="M838 2899 c-21 -11 -38 -22 -38 -24 0 -3 18 4 40 15 22 11 40 23 40
25 0 7 0 7 -42 -16z"/>
<path d="M4441 2787 c-13 -21 -12 -21 5 -5 10 10 16 20 13 22 -3 3 -11 -5 -18
-17z"/>
<path d="M519 2763 c-13 -16 -12 -17 4 -4 16 13 21 21 13 21 -2 0 -10 -8 -17
-17z"/>
<path d="M2163 2677 c4 -11 10 -31 14 -45 3 -15 19 -40 35 -57 29 -29 28 -28
-8 40 -39 74 -52 92 -41 62z"/>
<path d="M415 2624 c-9 -14 -15 -27 -13 -30 2 -2 12 10 22 26 21 37 15 40 -9
4z"/>
<path d="M376 2565 c-9 -26 -7 -32 5 -12 6 10 9 21 6 23 -2 3 -7 -2 -11 -11z"/>
<path d="M336 2483 c-6 -14 -5 -15 5 -6 7 7 10 15 7 18 -3 3 -9 -2 -12 -12z"/>
<path d="M307 2425 c-24 -50 -20 -58 4 -12 11 22 19 41 17 43 -3 2 -12 -12
-21 -31z"/>
<path d="M2016 2065 c-9 -26 -7 -32 5 -12 6 10 9 21 6 23 -2 3 -7 -2 -11 -11z"/>
<path d="M1956 1954 c-47 -72 -59 -112 -18 -59 14 17 22 22 26 13 3 -7 3 -3 0
10 -4 15 0 24 10 28 9 3 13 10 11 15 -3 5 2 20 11 34 9 14 15 27 13 29 -2 2
-26 -29 -53 -70z"/>
<path d="M1930 1858 c-29 -44 -32 -53 -6 -23 22 26 32 45 23 45 -1 0 -9 -10
-17 -22z"/>
<path d="M1868 1780 c-10 -9 -15 -20 -11 -23 3 -4 13 2 21 14 18 26 12 32 -10
9z"/>
<path d="M4622 1250 c0 -19 2 -27 5 -17 2 9 2 25 0 35 -3 9 -5 1 -5 -18z"/>
<path d="M4536 1133 c-6 -14 -5 -15 5 -6 7 7 10 15 7 18 -3 3 -9 -2 -12 -12z"/>
<path d="M4429 973 c-13 -16 -12 -17 4 -4 16 13 21 21 13 21 -2 0 -10 -8 -17
-17z"/>
<path d="M677 939 c7 -7 15 -10 18 -7 3 3 -2 9 -12 12 -14 6 -15 5 -6 -5z"/>
<path d="M1528 693 c6 -2 18 -2 25 0 6 3 1 5 -13 5 -14 0 -19 -2 -12 -5z"/>
</g>
</svg>
